<mxfile host="app.diagrams.net" modified="2024-06-13T11:34:24.057Z" agent="Mozilla/5.0 (Windows NT 10.0; Win64; x64) AppleWebKit/537.36 (KHTML, like Gecko) Chrome/125.0.0.0 Safari/537.36" etag="SKHkvJ6xAJ-692ei4naY" version="24.5.4" type="device">
  <diagram name="Page-1" id="S8YTOZrHcixdIfj45pyo">
    <mxGraphModel dx="2372" dy="2102" grid="1" gridSize="10" guides="1" tooltips="1" connect="1" arrows="1" fold="1" page="1" pageScale="1" pageWidth="850" pageHeight="1100" math="0" shadow="0">
      <root>
        <mxCell id="0" />
        <mxCell id="1" parent="0" />
        <mxCell id="gl8IdHPdv1HuhGo8-whD-1" value="Movie" style="swimlane;fontStyle=1;align=center;verticalAlign=top;childLayout=stackLayout;horizontal=1;startSize=26;horizontalStack=0;resizeParent=1;resizeParentMax=0;resizeLast=0;collapsible=1;marginBottom=0;whiteSpace=wrap;html=1;" vertex="1" parent="1">
          <mxGeometry x="30" y="100" width="160" height="114" as="geometry" />
        </mxCell>
        <mxCell id="gl8IdHPdv1HuhGo8-whD-2" value="+ id: int&lt;div&gt;+ name : String&lt;/div&gt;&lt;div&gt;+ duration : int&lt;/div&gt;" style="text;strokeColor=none;fillColor=none;align=left;verticalAlign=top;spacingLeft=4;spacingRight=4;overflow=hidden;rotatable=0;points=[[0,0.5],[1,0.5]];portConstraint=eastwest;whiteSpace=wrap;html=1;" vertex="1" parent="gl8IdHPdv1HuhGo8-whD-1">
          <mxGeometry y="26" width="160" height="54" as="geometry" />
        </mxCell>
        <mxCell id="gl8IdHPdv1HuhGo8-whD-3" value="" style="line;strokeWidth=1;fillColor=none;align=left;verticalAlign=middle;spacingTop=-1;spacingLeft=3;spacingRight=3;rotatable=0;labelPosition=right;points=[];portConstraint=eastwest;strokeColor=inherit;" vertex="1" parent="gl8IdHPdv1HuhGo8-whD-1">
          <mxGeometry y="80" width="160" height="8" as="geometry" />
        </mxCell>
        <mxCell id="gl8IdHPdv1HuhGo8-whD-4" value="+ method(type): type" style="text;strokeColor=none;fillColor=none;align=left;verticalAlign=top;spacingLeft=4;spacingRight=4;overflow=hidden;rotatable=0;points=[[0,0.5],[1,0.5]];portConstraint=eastwest;whiteSpace=wrap;html=1;" vertex="1" parent="gl8IdHPdv1HuhGo8-whD-1">
          <mxGeometry y="88" width="160" height="26" as="geometry" />
        </mxCell>
        <mxCell id="gl8IdHPdv1HuhGo8-whD-5" value="MovieController" style="swimlane;fontStyle=1;align=center;verticalAlign=top;childLayout=stackLayout;horizontal=1;startSize=26;horizontalStack=0;resizeParent=1;resizeParentMax=0;resizeLast=0;collapsible=1;marginBottom=0;whiteSpace=wrap;html=1;" vertex="1" parent="1">
          <mxGeometry x="-10" y="340" width="240" height="104" as="geometry" />
        </mxCell>
        <mxCell id="gl8IdHPdv1HuhGo8-whD-6" value="+ cityVsMovie: Map&amp;lt;City, List&amp;lt;Movie&amp;gt;&amp;gt;&lt;div&gt;+ allMovies : List&amp;lt;Movie&amp;gt;&lt;/div&gt;" style="text;strokeColor=none;fillColor=none;align=left;verticalAlign=top;spacingLeft=4;spacingRight=4;overflow=hidden;rotatable=0;points=[[0,0.5],[1,0.5]];portConstraint=eastwest;whiteSpace=wrap;html=1;" vertex="1" parent="gl8IdHPdv1HuhGo8-whD-5">
          <mxGeometry y="26" width="240" height="44" as="geometry" />
        </mxCell>
        <mxCell id="gl8IdHPdv1HuhGo8-whD-7" value="" style="line;strokeWidth=1;fillColor=none;align=left;verticalAlign=middle;spacingTop=-1;spacingLeft=3;spacingRight=3;rotatable=0;labelPosition=right;points=[];portConstraint=eastwest;strokeColor=inherit;" vertex="1" parent="gl8IdHPdv1HuhGo8-whD-5">
          <mxGeometry y="70" width="240" height="8" as="geometry" />
        </mxCell>
        <mxCell id="gl8IdHPdv1HuhGo8-whD-8" value="+ method(type): type" style="text;strokeColor=none;fillColor=none;align=left;verticalAlign=top;spacingLeft=4;spacingRight=4;overflow=hidden;rotatable=0;points=[[0,0.5],[1,0.5]];portConstraint=eastwest;whiteSpace=wrap;html=1;" vertex="1" parent="gl8IdHPdv1HuhGo8-whD-5">
          <mxGeometry y="78" width="240" height="26" as="geometry" />
        </mxCell>
        <mxCell id="gl8IdHPdv1HuhGo8-whD-9" value="Theatre" style="swimlane;fontStyle=1;align=center;verticalAlign=top;childLayout=stackLayout;horizontal=1;startSize=26;horizontalStack=0;resizeParent=1;resizeParentMax=0;resizeLast=0;collapsible=1;marginBottom=0;whiteSpace=wrap;html=1;" vertex="1" parent="1">
          <mxGeometry x="345" y="-150" width="160" height="144" as="geometry" />
        </mxCell>
        <mxCell id="gl8IdHPdv1HuhGo8-whD-10" value="+ id: int&lt;div&gt;+ address : String&lt;/div&gt;&lt;div&gt;+ city: City&lt;/div&gt;&lt;div&gt;+ screens : List&amp;lt;Screen&amp;gt;&lt;/div&gt;&lt;div&gt;+ shows : List&amp;lt;Show&amp;gt;&lt;/div&gt;" style="text;strokeColor=none;fillColor=none;align=left;verticalAlign=top;spacingLeft=4;spacingRight=4;overflow=hidden;rotatable=0;points=[[0,0.5],[1,0.5]];portConstraint=eastwest;whiteSpace=wrap;html=1;" vertex="1" parent="gl8IdHPdv1HuhGo8-whD-9">
          <mxGeometry y="26" width="160" height="84" as="geometry" />
        </mxCell>
        <mxCell id="gl8IdHPdv1HuhGo8-whD-11" value="" style="line;strokeWidth=1;fillColor=none;align=left;verticalAlign=middle;spacingTop=-1;spacingLeft=3;spacingRight=3;rotatable=0;labelPosition=right;points=[];portConstraint=eastwest;strokeColor=inherit;" vertex="1" parent="gl8IdHPdv1HuhGo8-whD-9">
          <mxGeometry y="110" width="160" height="8" as="geometry" />
        </mxCell>
        <mxCell id="gl8IdHPdv1HuhGo8-whD-12" value="+ method(type): type" style="text;strokeColor=none;fillColor=none;align=left;verticalAlign=top;spacingLeft=4;spacingRight=4;overflow=hidden;rotatable=0;points=[[0,0.5],[1,0.5]];portConstraint=eastwest;whiteSpace=wrap;html=1;" vertex="1" parent="gl8IdHPdv1HuhGo8-whD-9">
          <mxGeometry y="118" width="160" height="26" as="geometry" />
        </mxCell>
        <mxCell id="gl8IdHPdv1HuhGo8-whD-13" value="TheatreController" style="swimlane;fontStyle=1;align=center;verticalAlign=top;childLayout=stackLayout;horizontal=1;startSize=26;horizontalStack=0;resizeParent=1;resizeParentMax=0;resizeLast=0;collapsible=1;marginBottom=0;whiteSpace=wrap;html=1;" vertex="1" parent="1">
          <mxGeometry y="-104" width="240" height="104" as="geometry" />
        </mxCell>
        <mxCell id="gl8IdHPdv1HuhGo8-whD-14" value="+ cityVsTheatre : Map&amp;lt;City, List&amp;lt;Theatre&amp;gt;&lt;div&gt;+ allTheatres : List&amp;lt;Theatre&amp;gt;&lt;/div&gt;" style="text;strokeColor=none;fillColor=none;align=left;verticalAlign=top;spacingLeft=4;spacingRight=4;overflow=hidden;rotatable=0;points=[[0,0.5],[1,0.5]];portConstraint=eastwest;whiteSpace=wrap;html=1;" vertex="1" parent="gl8IdHPdv1HuhGo8-whD-13">
          <mxGeometry y="26" width="240" height="44" as="geometry" />
        </mxCell>
        <mxCell id="gl8IdHPdv1HuhGo8-whD-15" value="" style="line;strokeWidth=1;fillColor=none;align=left;verticalAlign=middle;spacingTop=-1;spacingLeft=3;spacingRight=3;rotatable=0;labelPosition=right;points=[];portConstraint=eastwest;strokeColor=inherit;" vertex="1" parent="gl8IdHPdv1HuhGo8-whD-13">
          <mxGeometry y="70" width="240" height="8" as="geometry" />
        </mxCell>
        <mxCell id="gl8IdHPdv1HuhGo8-whD-16" value="+ method(type): type" style="text;strokeColor=none;fillColor=none;align=left;verticalAlign=top;spacingLeft=4;spacingRight=4;overflow=hidden;rotatable=0;points=[[0,0.5],[1,0.5]];portConstraint=eastwest;whiteSpace=wrap;html=1;" vertex="1" parent="gl8IdHPdv1HuhGo8-whD-13">
          <mxGeometry y="78" width="240" height="26" as="geometry" />
        </mxCell>
        <mxCell id="gl8IdHPdv1HuhGo8-whD-17" value="Screen" style="swimlane;fontStyle=1;align=center;verticalAlign=top;childLayout=stackLayout;horizontal=1;startSize=26;horizontalStack=0;resizeParent=1;resizeParentMax=0;resizeLast=0;collapsible=1;marginBottom=0;whiteSpace=wrap;html=1;" vertex="1" parent="1">
          <mxGeometry x="620" y="-110" width="180" height="104" as="geometry" />
        </mxCell>
        <mxCell id="gl8IdHPdv1HuhGo8-whD-18" value="&lt;div&gt;+ id: int&lt;/div&gt;&lt;div&gt;+ seats : List&amp;lt;Seat&amp;gt;&lt;/div&gt;" style="text;strokeColor=none;fillColor=none;align=left;verticalAlign=top;spacingLeft=4;spacingRight=4;overflow=hidden;rotatable=0;points=[[0,0.5],[1,0.5]];portConstraint=eastwest;whiteSpace=wrap;html=1;" vertex="1" parent="gl8IdHPdv1HuhGo8-whD-17">
          <mxGeometry y="26" width="180" height="44" as="geometry" />
        </mxCell>
        <mxCell id="gl8IdHPdv1HuhGo8-whD-19" value="" style="line;strokeWidth=1;fillColor=none;align=left;verticalAlign=middle;spacingTop=-1;spacingLeft=3;spacingRight=3;rotatable=0;labelPosition=right;points=[];portConstraint=eastwest;strokeColor=inherit;" vertex="1" parent="gl8IdHPdv1HuhGo8-whD-17">
          <mxGeometry y="70" width="180" height="8" as="geometry" />
        </mxCell>
        <mxCell id="gl8IdHPdv1HuhGo8-whD-20" value="+ method(type): type" style="text;strokeColor=none;fillColor=none;align=left;verticalAlign=top;spacingLeft=4;spacingRight=4;overflow=hidden;rotatable=0;points=[[0,0.5],[1,0.5]];portConstraint=eastwest;whiteSpace=wrap;html=1;" vertex="1" parent="gl8IdHPdv1HuhGo8-whD-17">
          <mxGeometry y="78" width="180" height="26" as="geometry" />
        </mxCell>
        <mxCell id="gl8IdHPdv1HuhGo8-whD-21" value="Seat" style="swimlane;fontStyle=1;align=center;verticalAlign=top;childLayout=stackLayout;horizontal=1;startSize=26;horizontalStack=0;resizeParent=1;resizeParentMax=0;resizeLast=0;collapsible=1;marginBottom=0;whiteSpace=wrap;html=1;" vertex="1" parent="1">
          <mxGeometry x="740" y="105" width="180" height="114" as="geometry" />
        </mxCell>
        <mxCell id="gl8IdHPdv1HuhGo8-whD-22" value="&lt;div&gt;+ id : int&lt;/div&gt;&lt;div&gt;+ row : int&lt;/div&gt;&lt;div&gt;+ seatCategory : SeatCategory&lt;/div&gt;" style="text;strokeColor=none;fillColor=none;align=left;verticalAlign=top;spacingLeft=4;spacingRight=4;overflow=hidden;rotatable=0;points=[[0,0.5],[1,0.5]];portConstraint=eastwest;whiteSpace=wrap;html=1;" vertex="1" parent="gl8IdHPdv1HuhGo8-whD-21">
          <mxGeometry y="26" width="180" height="54" as="geometry" />
        </mxCell>
        <mxCell id="gl8IdHPdv1HuhGo8-whD-23" value="" style="line;strokeWidth=1;fillColor=none;align=left;verticalAlign=middle;spacingTop=-1;spacingLeft=3;spacingRight=3;rotatable=0;labelPosition=right;points=[];portConstraint=eastwest;strokeColor=inherit;" vertex="1" parent="gl8IdHPdv1HuhGo8-whD-21">
          <mxGeometry y="80" width="180" height="8" as="geometry" />
        </mxCell>
        <mxCell id="gl8IdHPdv1HuhGo8-whD-24" value="+ method(type): type" style="text;strokeColor=none;fillColor=none;align=left;verticalAlign=top;spacingLeft=4;spacingRight=4;overflow=hidden;rotatable=0;points=[[0,0.5],[1,0.5]];portConstraint=eastwest;whiteSpace=wrap;html=1;" vertex="1" parent="gl8IdHPdv1HuhGo8-whD-21">
          <mxGeometry y="88" width="180" height="26" as="geometry" />
        </mxCell>
        <mxCell id="gl8IdHPdv1HuhGo8-whD-25" value="Show" style="swimlane;fontStyle=1;align=center;verticalAlign=top;childLayout=stackLayout;horizontal=1;startSize=26;horizontalStack=0;resizeParent=1;resizeParentMax=0;resizeLast=0;collapsible=1;marginBottom=0;whiteSpace=wrap;html=1;" vertex="1" parent="1">
          <mxGeometry x="410" y="90" width="180" height="144" as="geometry" />
        </mxCell>
        <mxCell id="gl8IdHPdv1HuhGo8-whD-26" value="+ showId : int&lt;div&gt;+ movie : Movie&lt;/div&gt;&lt;div&gt;+ screen : Screen&lt;/div&gt;&lt;div&gt;+ showTime : long&lt;/div&gt;&lt;div&gt;+ bookedSeats : List&amp;lt;Integer&amp;gt;&lt;/div&gt;&lt;div&gt;&lt;br&gt;&lt;/div&gt;&lt;div&gt;&lt;br&gt;&lt;/div&gt;" style="text;strokeColor=none;fillColor=none;align=left;verticalAlign=top;spacingLeft=4;spacingRight=4;overflow=hidden;rotatable=0;points=[[0,0.5],[1,0.5]];portConstraint=eastwest;whiteSpace=wrap;html=1;" vertex="1" parent="gl8IdHPdv1HuhGo8-whD-25">
          <mxGeometry y="26" width="180" height="84" as="geometry" />
        </mxCell>
        <mxCell id="gl8IdHPdv1HuhGo8-whD-27" value="" style="line;strokeWidth=1;fillColor=none;align=left;verticalAlign=middle;spacingTop=-1;spacingLeft=3;spacingRight=3;rotatable=0;labelPosition=right;points=[];portConstraint=eastwest;strokeColor=inherit;" vertex="1" parent="gl8IdHPdv1HuhGo8-whD-25">
          <mxGeometry y="110" width="180" height="8" as="geometry" />
        </mxCell>
        <mxCell id="gl8IdHPdv1HuhGo8-whD-28" value="+ method(type): type" style="text;strokeColor=none;fillColor=none;align=left;verticalAlign=top;spacingLeft=4;spacingRight=4;overflow=hidden;rotatable=0;points=[[0,0.5],[1,0.5]];portConstraint=eastwest;whiteSpace=wrap;html=1;" vertex="1" parent="gl8IdHPdv1HuhGo8-whD-25">
          <mxGeometry y="118" width="180" height="26" as="geometry" />
        </mxCell>
        <mxCell id="gl8IdHPdv1HuhGo8-whD-29" value="Booking" style="swimlane;fontStyle=1;align=center;verticalAlign=top;childLayout=stackLayout;horizontal=1;startSize=26;horizontalStack=0;resizeParent=1;resizeParentMax=0;resizeLast=0;collapsible=1;marginBottom=0;whiteSpace=wrap;html=1;" vertex="1" parent="1">
          <mxGeometry x="335" y="310" width="180" height="114" as="geometry" />
        </mxCell>
        <mxCell id="gl8IdHPdv1HuhGo8-whD-30" value="&lt;div&gt;+ show : Show&lt;/div&gt;&lt;div&gt;+ seats : List&amp;lt;Seat&amp;gt;&lt;/div&gt;&lt;div&gt;+ payment : Payment&lt;/div&gt;" style="text;strokeColor=none;fillColor=none;align=left;verticalAlign=top;spacingLeft=4;spacingRight=4;overflow=hidden;rotatable=0;points=[[0,0.5],[1,0.5]];portConstraint=eastwest;whiteSpace=wrap;html=1;" vertex="1" parent="gl8IdHPdv1HuhGo8-whD-29">
          <mxGeometry y="26" width="180" height="54" as="geometry" />
        </mxCell>
        <mxCell id="gl8IdHPdv1HuhGo8-whD-31" value="" style="line;strokeWidth=1;fillColor=none;align=left;verticalAlign=middle;spacingTop=-1;spacingLeft=3;spacingRight=3;rotatable=0;labelPosition=right;points=[];portConstraint=eastwest;strokeColor=inherit;" vertex="1" parent="gl8IdHPdv1HuhGo8-whD-29">
          <mxGeometry y="80" width="180" height="8" as="geometry" />
        </mxCell>
        <mxCell id="gl8IdHPdv1HuhGo8-whD-32" value="+ method(type): type" style="text;strokeColor=none;fillColor=none;align=left;verticalAlign=top;spacingLeft=4;spacingRight=4;overflow=hidden;rotatable=0;points=[[0,0.5],[1,0.5]];portConstraint=eastwest;whiteSpace=wrap;html=1;" vertex="1" parent="gl8IdHPdv1HuhGo8-whD-29">
          <mxGeometry y="88" width="180" height="26" as="geometry" />
        </mxCell>
        <mxCell id="gl8IdHPdv1HuhGo8-whD-33" value="Payment" style="swimlane;fontStyle=1;align=center;verticalAlign=top;childLayout=stackLayout;horizontal=1;startSize=26;horizontalStack=0;resizeParent=1;resizeParentMax=0;resizeLast=0;collapsible=1;marginBottom=0;whiteSpace=wrap;html=1;" vertex="1" parent="1">
          <mxGeometry x="630" y="440" width="180" height="104" as="geometry" />
        </mxCell>
        <mxCell id="gl8IdHPdv1HuhGo8-whD-34" value="+&amp;nbsp; id : int&lt;div&gt;+ status : String&lt;/div&gt;" style="text;strokeColor=none;fillColor=none;align=left;verticalAlign=top;spacingLeft=4;spacingRight=4;overflow=hidden;rotatable=0;points=[[0,0.5],[1,0.5]];portConstraint=eastwest;whiteSpace=wrap;html=1;" vertex="1" parent="gl8IdHPdv1HuhGo8-whD-33">
          <mxGeometry y="26" width="180" height="44" as="geometry" />
        </mxCell>
        <mxCell id="gl8IdHPdv1HuhGo8-whD-35" value="" style="line;strokeWidth=1;fillColor=none;align=left;verticalAlign=middle;spacingTop=-1;spacingLeft=3;spacingRight=3;rotatable=0;labelPosition=right;points=[];portConstraint=eastwest;strokeColor=inherit;" vertex="1" parent="gl8IdHPdv1HuhGo8-whD-33">
          <mxGeometry y="70" width="180" height="8" as="geometry" />
        </mxCell>
        <mxCell id="gl8IdHPdv1HuhGo8-whD-36" value="+ method(type): type" style="text;strokeColor=none;fillColor=none;align=left;verticalAlign=top;spacingLeft=4;spacingRight=4;overflow=hidden;rotatable=0;points=[[0,0.5],[1,0.5]];portConstraint=eastwest;whiteSpace=wrap;html=1;" vertex="1" parent="gl8IdHPdv1HuhGo8-whD-33">
          <mxGeometry y="78" width="180" height="26" as="geometry" />
        </mxCell>
        <mxCell id="gl8IdHPdv1HuhGo8-whD-37" value="" style="endArrow=open;endFill=1;endSize=12;html=1;rounded=0;exitX=0.5;exitY=0;exitDx=0;exitDy=0;entryX=0.623;entryY=1.167;entryDx=0;entryDy=0;entryPerimeter=0;" edge="1" parent="1">
          <mxGeometry width="160" relative="1" as="geometry">
            <mxPoint x="109.82" y="335.66" as="sourcePoint" />
            <mxPoint x="109.50000000000006" y="214.0020000000001" as="targetPoint" />
          </mxGeometry>
        </mxCell>
        <mxCell id="gl8IdHPdv1HuhGo8-whD-38" value="has-a" style="text;html=1;align=center;verticalAlign=middle;resizable=0;points=[];autosize=1;strokeColor=none;fillColor=none;" vertex="1" parent="1">
          <mxGeometry x="105" y="258" width="50" height="30" as="geometry" />
        </mxCell>
        <mxCell id="gl8IdHPdv1HuhGo8-whD-39" value="" style="endArrow=open;endFill=1;endSize=12;html=1;rounded=0;exitX=1;exitY=0.5;exitDx=0;exitDy=0;entryX=0.002;entryY=0.827;entryDx=0;entryDy=0;entryPerimeter=0;" edge="1" parent="1" source="gl8IdHPdv1HuhGo8-whD-14" target="gl8IdHPdv1HuhGo8-whD-10">
          <mxGeometry width="160" relative="1" as="geometry">
            <mxPoint x="335.32" y="61.660000000000025" as="sourcePoint" />
            <mxPoint x="335.00000000000006" y="-59.997999999999905" as="targetPoint" />
          </mxGeometry>
        </mxCell>
        <mxCell id="gl8IdHPdv1HuhGo8-whD-40" value="has-a" style="text;html=1;align=center;verticalAlign=middle;resizable=0;points=[];autosize=1;strokeColor=none;fillColor=none;" vertex="1" parent="1">
          <mxGeometry x="245" y="-82" width="50" height="30" as="geometry" />
        </mxCell>
        <mxCell id="gl8IdHPdv1HuhGo8-whD-41" value="" style="endArrow=open;endFill=1;endSize=12;html=1;rounded=0;exitX=1.005;exitY=0.663;exitDx=0;exitDy=0;exitPerimeter=0;" edge="1" parent="1" source="gl8IdHPdv1HuhGo8-whD-10">
          <mxGeometry width="160" relative="1" as="geometry">
            <mxPoint x="510" y="-66" as="sourcePoint" />
            <mxPoint x="620" y="-70" as="targetPoint" />
          </mxGeometry>
        </mxCell>
        <mxCell id="gl8IdHPdv1HuhGo8-whD-42" value="has-a" style="text;html=1;align=center;verticalAlign=middle;resizable=0;points=[];autosize=1;strokeColor=none;fillColor=none;" vertex="1" parent="1">
          <mxGeometry x="530" y="-93" width="50" height="30" as="geometry" />
        </mxCell>
        <mxCell id="gl8IdHPdv1HuhGo8-whD-43" value="has-a" style="text;html=1;align=center;verticalAlign=middle;resizable=0;points=[];autosize=1;strokeColor=none;fillColor=none;" vertex="1" parent="1">
          <mxGeometry x="770" y="40" width="50" height="30" as="geometry" />
        </mxCell>
        <mxCell id="gl8IdHPdv1HuhGo8-whD-44" value="" style="endArrow=open;endFill=1;endSize=12;html=1;rounded=0;entryX=0.167;entryY=-0.028;entryDx=0;entryDy=0;entryPerimeter=0;" edge="1" parent="1" target="gl8IdHPdv1HuhGo8-whD-21">
          <mxGeometry width="160" relative="1" as="geometry">
            <mxPoint x="770" as="sourcePoint" />
            <mxPoint x="770" y="100" as="targetPoint" />
          </mxGeometry>
        </mxCell>
        <mxCell id="gl8IdHPdv1HuhGo8-whD-45" value="" style="endArrow=open;endFill=1;endSize=12;html=1;rounded=0;exitX=1.005;exitY=0.663;exitDx=0;exitDy=0;exitPerimeter=0;entryX=0.229;entryY=0.996;entryDx=0;entryDy=0;entryPerimeter=0;" edge="1" parent="1" target="gl8IdHPdv1HuhGo8-whD-20">
          <mxGeometry width="160" relative="1" as="geometry">
            <mxPoint x="590" y="158" as="sourcePoint" />
            <mxPoint x="704" y="156" as="targetPoint" />
            <Array as="points">
              <mxPoint x="660" y="160" />
            </Array>
          </mxGeometry>
        </mxCell>
        <mxCell id="gl8IdHPdv1HuhGo8-whD-46" value="has-a" style="text;html=1;align=center;verticalAlign=middle;resizable=0;points=[];autosize=1;strokeColor=none;fillColor=none;" vertex="1" parent="1">
          <mxGeometry x="610" y="130" width="50" height="30" as="geometry" />
        </mxCell>
        <mxCell id="gl8IdHPdv1HuhGo8-whD-47" value="" style="endArrow=open;endFill=1;endSize=12;html=1;rounded=0;entryX=0.229;entryY=0.996;entryDx=0;entryDy=0;entryPerimeter=0;exitX=0.99;exitY=0.088;exitDx=0;exitDy=0;exitPerimeter=0;" edge="1" parent="1" source="gl8IdHPdv1HuhGo8-whD-32">
          <mxGeometry width="160" relative="1" as="geometry">
            <mxPoint x="520" y="400" as="sourcePoint" />
            <mxPoint x="576" y="234" as="targetPoint" />
            <Array as="points">
              <mxPoint x="575" y="400" />
              <mxPoint x="576" y="310" />
            </Array>
          </mxGeometry>
        </mxCell>
        <mxCell id="gl8IdHPdv1HuhGo8-whD-48" value="has-a" style="text;html=1;align=center;verticalAlign=middle;resizable=0;points=[];autosize=1;strokeColor=none;fillColor=none;" vertex="1" parent="1">
          <mxGeometry x="515" y="377" width="50" height="30" as="geometry" />
        </mxCell>
        <mxCell id="gl8IdHPdv1HuhGo8-whD-49" value="" style="endArrow=open;endFill=1;endSize=12;html=1;rounded=0;entryX=0.205;entryY=1.115;entryDx=0;entryDy=0;entryPerimeter=0;exitX=1;exitY=0.5;exitDx=0;exitDy=0;" edge="1" parent="1" source="gl8IdHPdv1HuhGo8-whD-32" target="gl8IdHPdv1HuhGo8-whD-24">
          <mxGeometry width="160" relative="1" as="geometry">
            <mxPoint x="523" y="410" as="sourcePoint" />
            <mxPoint x="586" y="244" as="targetPoint" />
            <Array as="points">
              <mxPoint x="780" y="410" />
            </Array>
          </mxGeometry>
        </mxCell>
        <mxCell id="gl8IdHPdv1HuhGo8-whD-50" value="has-a" style="text;html=1;align=center;verticalAlign=middle;resizable=0;points=[];autosize=1;strokeColor=none;fillColor=none;" vertex="1" parent="1">
          <mxGeometry x="640" y="390" width="50" height="30" as="geometry" />
        </mxCell>
        <mxCell id="gl8IdHPdv1HuhGo8-whD-51" value="" style="endArrow=open;endFill=1;endSize=12;html=1;rounded=0;entryX=-0.012;entryY=0.855;entryDx=0;entryDy=0;entryPerimeter=0;" edge="1" parent="1" target="gl8IdHPdv1HuhGo8-whD-34">
          <mxGeometry width="160" relative="1" as="geometry">
            <mxPoint x="440" y="424" as="sourcePoint" />
            <mxPoint x="440" y="526" as="targetPoint" />
            <Array as="points">
              <mxPoint x="440" y="504" />
            </Array>
          </mxGeometry>
        </mxCell>
        <mxCell id="gl8IdHPdv1HuhGo8-whD-52" value="has-a" style="text;html=1;align=center;verticalAlign=middle;resizable=0;points=[];autosize=1;strokeColor=none;fillColor=none;" vertex="1" parent="1">
          <mxGeometry x="490" y="477" width="50" height="30" as="geometry" />
        </mxCell>
        <mxCell id="gl8IdHPdv1HuhGo8-whD-53" value="has-a" style="text;html=1;align=center;verticalAlign=middle;resizable=0;points=[];autosize=1;strokeColor=none;fillColor=none;" vertex="1" parent="1">
          <mxGeometry x="285" y="150" width="50" height="30" as="geometry" />
        </mxCell>
        <mxCell id="gl8IdHPdv1HuhGo8-whD-54" value="" style="endArrow=open;endFill=1;endSize=12;html=1;rounded=0;entryX=1.011;entryY=0.974;entryDx=0;entryDy=0;entryPerimeter=0;exitX=-0.001;exitY=0.729;exitDx=0;exitDy=0;exitPerimeter=0;" edge="1" parent="1" source="gl8IdHPdv1HuhGo8-whD-26" target="gl8IdHPdv1HuhGo8-whD-2">
          <mxGeometry width="160" relative="1" as="geometry">
            <mxPoint x="310" y="150" as="sourcePoint" />
            <mxPoint x="310" y="252" as="targetPoint" />
          </mxGeometry>
        </mxCell>
      </root>
    </mxGraphModel>
  </diagram>
</mxfile>
